# xmcd CD database file
#
# Track frame offsets:
#	150
#	15600
#	31239
#	46931
#	62155
#	78768
#	92439
#	109676
#	126248
#	139454
#	151315
#	169250
#	187013
#	202449
#
# Disc length: 2832 seconds
#
# Revision: 0
# Processed by: cddbd v1.5.2PL0 Copyright (c) Steve Scherf et al.
# Submitted via: CDex 1.70beta2
#
DISCID=bf0b0e0e
DTITLE=LoCash Cowboys - LoCash Cowboys
DYEAR=2008
DGENRE=Country
TTITLE0=You Got Me
TTITLE1=Boom Boom
TTITLE2=Yeah Yeah
TTITLE3=A Good Song
TTITLE4=Gimme Somethin To Look At
TTITLE5=Livin It Up
TTITLE6=Lets Make Love Right Now
TTITLE7=T-Shirt
TTITLE8=Unordinary Day
TTITLE9=Back In Those Days
TTITLE10=Love A Night Like That
TTITLE11=Presidents Daughters
TTITLE12=Its A Race Thing
TTITLE13=Hotlittlecutiepiesexythang
EXTD=YEAR: 2008
EXTT0=
EXTT1=
EXTT2=
EXTT3=
EXTT4=
EXTT5=
EXTT6=
EXTT7=
EXTT8=
EXTT9=
EXTT10=
EXTT11=
EXTT12=
EXTT13=
PLAYORDER=
